<?xml version="1.0"?>
<svg width="620" height="267" xmlns="http://www.w3.org/2000/svg" xmlns:svg="http://www.w3.org/2000/svg">
 <!-- Created with SVG-edit - https://github.com/SVG-Edit/svgedit-->

 <g class="layer">
  <title>Layer 1</title>
  <g id="svg_28">
   <path d="m0,21.743314l124.487322,0l0,0c68.752459,0 124.487322,50.539249 124.487322,112.882578c0,62.343335 -55.734861,112.882578 -124.487322,112.882578l-124.487322,0l0,-225.765155z" fill="#ff007f" id="svg_14" stroke="#0000bf" stroke-dasharray="null" stroke-linecap="null" stroke-linejoin="null" stroke-width="4"/>
   <text fill="#0000bf" font-family="Serif" font-size="100" font-style="normal" font-weight="normal" id="svg_11" stroke="#000000" stroke-dasharray="null" stroke-linecap="null" stroke-linejoin="null" text-anchor="middle" transform="matrix(2.10996 0 0 2.10996 -39.3299 -2.44728)" x="74.517643" xml:space="preserve" y="91.262482">fjb</text>
   <text fill="#000000" font-family="Sans-serif" font-size="122" id="svg_3" stroke="#000000" stroke-width="0" text-anchor="middle" transform="matrix(2.10996 0 0 2.10996 -39.3299 -2.44728)" x="83.517643" xml:space="preserve" y="-6.737518"/>
   <text fill="#000000" font-family="Sans-serif" font-size="122" id="svg_4" stroke="#000000" stroke-width="0" text-anchor="middle" transform="matrix(2.10996 0 0 2.10996 -39.3299 -2.44728)" x="3.517643" xml:space="preserve" y="8.262482"/>
   <text fill="#000000" font-family="Sans-serif" font-size="122" id="svg_5" stroke="#000000" stroke-width="0" text-anchor="middle" transform="matrix(2.10996 0 0 2.10996 -39.3299 -2.44728)" x="17.517643" xml:space="preserve" y="3.262482"/>
   <text fill="#7f007f" font-family="Serif" font-size="40" font-weight="normal" id="svg_17" stroke="#0000bf" stroke-dasharray="null" stroke-linecap="null" stroke-linejoin="null" text-anchor="middle" transform="matrix(2.10996 0 0 2.10996 -39.3299 -2.44728)" x="171.517643" xml:space="preserve" y="119.262482">iseño</text>
   <text fill="#0000bf" font-family="Serif" font-size="100" id="svg_22" stroke="#630763" stroke-dasharray="null" stroke-linecap="null" stroke-linejoin="null" stroke-width="0" text-anchor="middle" transform="matrix(2.10996 0 0 2.10996 -39.3299 -2.44728)" x="223.517643" xml:space="preserve" y="90.262482">aron</text>
   <path d="m446.865837,242.250862l-17.383099,12.628378l6.644867,-20.427686l-17.379185,-12.628378l21.482332,0.003914l5.709576,-17.56507l0.931376,-2.852832l6.633127,20.413988l21.488202,0l-17.387013,12.628378l6.646825,20.433556l-17.387013,-12.634248l0,0l0.000004,0z" fill="#bf00bf" id="svg_24" stroke="#630763" stroke-dasharray="null" stroke-linecap="null" stroke-linejoin="null" stroke-width="0"/>
   <path d="m497.504758,242.250862l-17.383099,12.628378l6.644869,-20.427684l-17.379187,-12.628381l21.482334,0.003914l5.709576,-17.56507l0.931376,-2.852832l6.633129,20.413988l21.488202,0l-17.387013,12.628381l6.646825,20.433554l-17.387013,-12.634248l0,0z" fill="#0000bf" id="svg_26" stroke="#630763" stroke-dasharray="null" stroke-linecap="null" stroke-linejoin="null" stroke-width="0"/>
   <path d="m550.253634,242.250862l-17.383099,12.628378l6.644869,-20.427684l-17.379187,-12.628381l21.482334,0.003914l5.709576,-17.56507l0.931376,-2.852832l6.633129,20.413988l21.488202,0l-17.387013,12.628381l6.646825,20.433554l-17.387013,-12.634248l0,0z" fill="#bf00bf" id="svg_27" stroke="#630763" stroke-dasharray="null" stroke-linecap="null" stroke-linejoin="null" stroke-width="0"/>
  </g>
 </g>
</svg>